<svg width="147" height="74" fill="none" xmlns="http://www.w3.org/2000/svg"><path d="M22.92 28h-3.51V13.15L13.26 28h-1.5L5.64 13.15V28H2.13V7.99h4.95l5.43 13.17 5.46-13.17h4.95V28zm22.259 0h-3.99l-1.47-3.84h-9.18L29.069 28h-3.99l7.86-20.01h4.38L45.179 28zm-6.45-6.93l-3.6-9.54-3.6 9.54h7.2zm17.18 7.32c-2.96 0-5.45-.96-7.47-2.88-2.02-1.92-3.03-4.42-3.03-7.5s1.01-5.57 3.03-7.47c2.02-1.92 4.51-2.88 7.47-2.88 3.44 0 6.13 1.39 8.07 4.17l-2.88 1.62c-.56-.78-1.3-1.42-2.22-1.92-.9-.5-1.89-.75-2.97-.75-1.98 0-3.63.68-4.95 2.04-1.3 1.36-1.95 3.09-1.95 5.19 0 2.1.65 3.84 1.95 5.22 1.32 1.36 2.97 2.04 4.95 2.04.94 0 1.83-.18 2.67-.54.86-.36 1.55-.78 2.07-1.26v-3.12h-5.97v-3.09h9.48v7.5c-2.18 2.42-4.93 3.63-8.25 3.63zM71.325 28h-3.51V7.99h3.51V28zm13.853.36c-3 0-5.5-.96-7.5-2.88-2-1.94-3-4.43-3-7.47s1-5.52 3-7.44c2-1.94 4.5-2.91 7.5-2.91 3.48 0 6.16 1.5 8.04 4.5l-3 1.53c-.5-.86-1.21-1.56-2.13-2.1-.9-.54-1.87-.81-2.91-.81-1.98 0-3.63.68-4.95 2.04-1.3 1.36-1.95 3.09-1.95 5.19 0 2.1.65 3.83 1.95 5.19 1.32 1.36 2.97 2.04 4.95 2.04 1.06 0 2.04-.27 2.94-.81.9-.54 1.6-1.24 2.1-2.1l3 1.53c-1.92 3-4.6 4.5-8.04 4.5zM12.24 65H2.13V44.99h9.84c1.78 0 3.17.49 4.17 1.47 1.02.96 1.53 2.17 1.53 3.63 0 1.2-.34 2.22-1.02 3.06-.66.82-1.48 1.33-2.46 1.53 1.08.16 1.99.72 2.73 1.68.76.94 1.14 2.02 1.14 3.24 0 1.6-.52 2.9-1.56 3.9-1.02 1-2.44 1.5-4.26 1.5zm-.99-11.73c.88 0 1.57-.24 2.07-.72.5-.48.75-1.1.75-1.86 0-.78-.25-1.41-.75-1.89s-1.19-.72-2.07-.72H5.64v5.19h5.61zm.15 8.64c.96 0 1.71-.24 2.25-.72.54-.5.81-1.19.81-2.07 0-.78-.27-1.43-.81-1.95-.54-.54-1.29-.81-2.25-.81H5.64v5.55h5.76zm26.863.54c-1.92 1.94-4.37 2.91-7.35 2.91-2.98 0-5.43-.97-7.35-2.91-1.92-1.96-2.88-4.44-2.88-7.44s.96-5.47 2.88-7.41c1.92-1.96 4.37-2.94 7.35-2.94 2.98 0 5.43.98 7.35 2.94 1.92 1.94 2.88 4.41 2.88 7.41s-.96 5.48-2.88 7.44zm-7.35-.21c1.98 0 3.58-.68 4.8-2.04 1.22-1.38 1.83-3.11 1.83-5.19 0-2.1-.61-3.83-1.83-5.19-1.22-1.36-2.82-2.04-4.8-2.04-2 0-3.61.68-4.83 2.04-1.2 1.36-1.8 3.09-1.8 5.19 0 2.1.6 3.83 1.8 5.19 1.22 1.36 2.83 2.04 4.83 2.04zm30.29.21c-1.92 1.94-4.37 2.91-7.35 2.91-2.98 0-5.43-.97-7.35-2.91-1.92-1.96-2.88-4.44-2.88-7.44s.96-5.47 2.88-7.41c1.92-1.96 4.37-2.94 7.35-2.94 2.98 0 5.43.98 7.35 2.94 1.92 1.94 2.88 4.41 2.88 7.41s-.96 5.48-2.88 7.44zm-7.35-.21c1.98 0 3.58-.68 4.8-2.04 1.22-1.38 1.83-3.11 1.83-5.19 0-2.1-.61-3.83-1.83-5.19-1.22-1.36-2.82-2.04-4.8-2.04-2 0-3.61.68-4.83 2.04-1.2 1.36-1.8 3.09-1.8 5.19 0 2.1.6 3.83 1.8 5.19 1.22 1.36 2.83 2.04 4.83 2.04zM83.752 65h-4.32l-6.72-8.43-1.74 2.04V65h-3.51V44.99h3.51v9.54l7.83-9.54h4.35l-8.13 9.45L83.752 65zm9.183.36c-3.44 0-6.15-1.06-8.13-3.18l1.95-2.7c1.72 1.84 3.83 2.76 6.33 2.76 1.34 0 2.34-.27 3-.81.68-.54 1.02-1.18 1.02-1.92 0-.76-.4-1.36-1.2-1.8-.8-.46-1.77-.82-2.91-1.08-1.14-.26-2.29-.57-3.45-.93a6.632 6.632 0 01-2.91-1.83c-.8-.86-1.2-1.97-1.2-3.33 0-1.68.67-3.07 2.01-4.17 1.36-1.12 3.12-1.68 5.28-1.68 3.08 0 5.58.93 7.5 2.79l-2.01 2.61c-1.52-1.52-3.45-2.28-5.79-2.28-1.04 0-1.87.23-2.49.69-.6.44-.9 1.04-.9 1.8 0 .5.21.92.63 1.26.44.34 1 .62 1.68.84.68.2 1.43.4 2.25.6.84.2 1.67.45 2.49.75.84.28 1.6.63 2.28 1.05.68.42 1.23 1 1.65 1.74.44.74.66 1.62.66 2.64 0 1.8-.65 3.28-1.95 4.44-1.3 1.16-3.23 1.74-5.79 1.74z" fill="#000"/><path d="M101.945 28.29C112.758 26.547 116.006 16.985 117 7c.903 11.175 3.587 21.236 15.055 21.29C119.301 29.352 116.469 40.64 117 51c-.617-12.356-4.328-22.734-15.055-22.71zm16.475 22.258c6.88-1.11 8.947-7.194 9.58-13.548.574 7.111 2.282 13.514 9.58 13.548-8.116.676-9.918 7.859-9.58 14.452-.392-7.863-2.754-14.467-9.58-14.452zm10.053-27.903c5.406-.872 7.03-5.653 7.527-10.645.451 5.587 1.793 10.618 7.527 10.645-6.376.53-7.792 6.175-7.527 11.355-.308-6.178-2.164-11.367-7.527-11.355z" fill="#FFC017"/></svg>